<svg xmlns="http://www.w3.org/2000/svg" width="1200" height="340" viewBox="0 0 1200 340" role="img" aria-labelledby="title desc">
  <title id="title">Viacheslav Murakhin — Full-Stack Developer</title>
  <desc id="desc">Dark GitHub-style profile banner with a repository header and a design, build, ship branch graph.</desc>
  <defs>
    <clipPath id="frame">
      <rect x="1" y="1" width="1198" height="338" rx="16"/>
    </clipPath>
  </defs>

  <g clip-path="url(#frame)">
    <rect x="1" y="1" width="1198" height="338" fill="#0D1117"/>
    <rect x="1" y="1" width="1198" height="55" fill="#161B22"/>
    <path d="M1 56H1199" stroke="#30363D"/>

    <g transform="translate(27 17)" fill="none" stroke="#F78166" stroke-width="2.2" stroke-linecap="round" stroke-linejoin="round">
      <circle cx="5" cy="4" r="3.5"/>
      <circle cx="5" cy="20" r="3.5"/>
      <circle cx="21" cy="4" r="3.5"/>
      <path d="M5 7.5V16.5M8.5 20H11C16.5 20 21 15.5 21 10V7.5"/>
    </g>

    <g font-family="-apple-system, BlinkMacSystemFont, 'Segoe UI', sans-serif" font-size="15">
      <text x="61" y="35" font-weight="650" fill="#58A6FF">WenziLikes</text>
      <text x="143" y="35" fill="#8B949E">/ profile</text>
    </g>

    <g transform="translate(925 14)" font-family="ui-monospace, SFMono-Regular, Menlo, Consolas, monospace" font-size="12.5">
      <rect width="84" height="29" rx="14.5" fill="#21262D" stroke="#30363D"/>
      <path d="M16 10V19M16 12.5C20 12.5 21.5 10 21.5 8.5M16 17C20 17 21.5 19.5 21.5 21" fill="none" stroke="#8B949E" stroke-width="1.5" stroke-linecap="round"/>
      <text x="31" y="19" fill="#C9D1D9">main</text>
    </g>

    <g transform="translate(1021 14)" font-family="ui-monospace, SFMono-Regular, Menlo, Consolas, monospace" font-size="12.5">
      <rect width="145" height="29" rx="14.5" fill="#13291E" stroke="#238636" stroke-opacity="0.7"/>
      <circle cx="17" cy="14.5" r="4" fill="#3FB950"/>
      <text x="30" y="19" fill="#7EE787">available</text>
    </g>

    <g font-family="-apple-system, BlinkMacSystemFont, 'Segoe UI', sans-serif">
      <text x="56" y="102" fill="#8B949E" font-family="ui-monospace, SFMono-Regular, Menlo, Consolas, monospace" font-size="14">README.md</text>
      <text x="56" y="158" fill="#F0F6FC" font-size="49" font-weight="720" letter-spacing="-1.7">Viacheslav Murakhin</text>
      <text x="57" y="198" fill="#C9D1D9" font-size="21" font-weight="600">Full-Stack Developer · Frontend Focus</text>
      <text x="57" y="229" fill="#8B949E" font-size="16.5">I build clear interfaces and reliable systems.</text>

      <g transform="translate(56 251)" font-family="ui-monospace, SFMono-Regular, Menlo, Consolas, monospace" font-size="12.5" fill="#C9D1D9">
        <g>
          <rect width="72" height="28" rx="6" fill="#21262D" stroke="#30363D"/>
          <text x="12" y="18.5">React</text>
        </g>
        <g transform="translate(82)">
          <rect width="102" height="28" rx="6" fill="#21262D" stroke="#30363D"/>
          <text x="12" y="18.5">TypeScript</text>
        </g>
        <g transform="translate(194)">
          <rect width="84" height="28" rx="6" fill="#21262D" stroke="#30363D"/>
          <text x="12" y="18.5">Node.js</text>
        </g>
        <g transform="translate(288)">
          <rect width="112" height="28" rx="6" fill="#21262D" stroke="#30363D"/>
          <text x="12" y="18.5">PostgreSQL</text>
        </g>
      </g>

      <g transform="translate(56 302)" font-family="ui-monospace, SFMono-Regular, Menlo, Consolas, monospace" font-size="12.5" fill="#8B949E">
        <path d="M7 0C3.1 0 0 3.1 0 7C0 12.2 7 19 7 19C7 19 14 12.2 14 7C14 3.1 10.9 0 7 0ZM7 9.5C5.6 9.5 4.5 8.4 4.5 7C4.5 5.6 5.6 4.5 7 4.5C8.4 4.5 9.5 5.6 9.5 7C9.5 8.4 8.4 9.5 7 9.5Z" fill="#8B949E"/>
        <text x="25" y="13.5">Niagara Region · Ontario · Canada</text>
      </g>
    </g>

    <g>
      <rect x="730" y="78" width="414" height="224" rx="12" fill="#161B22" stroke="#30363D"/>
      <path d="M730 124H1144" stroke="#30363D"/>
      <circle cx="755" cy="101" r="4" fill="#F78166"/>
      <circle cx="769" cy="101" r="4" fill="#D29922"/>
      <circle cx="783" cy="101" r="4" fill="#3FB950"/>
      <text x="803" y="106" fill="#8B949E" font-family="ui-monospace, SFMono-Regular, Menlo, Consolas, monospace" font-size="13.5">git log --graph --oneline</text>

      <path d="M766 148V280" fill="none" stroke="#58A6FF" stroke-width="2.5"/>
      <path d="M766 180C792 180 811 191 811 207V216C811 232 792 242 766 242" fill="none" stroke="#F78166" stroke-width="2.5"/>

      <circle cx="766" cy="159" r="7" fill="#0D1117" stroke="#58A6FF" stroke-width="3"/>
      <circle cx="811" cy="211" r="7" fill="#0D1117" stroke="#F78166" stroke-width="3"/>
      <circle cx="766" cy="270" r="7" fill="#0D1117" stroke="#3FB950" stroke-width="3"/>

      <g font-family="ui-monospace, SFMono-Regular, Menlo, Consolas, monospace">
        <text x="793" y="160" fill="#F0F6FC" font-size="14.5" font-weight="650">design</text>
        <text x="793" y="180" fill="#8B949E" font-size="12.5">clear product interfaces</text>

        <text x="838" y="212" fill="#F0F6FC" font-size="14.5" font-weight="650">build</text>
        <text x="838" y="232" fill="#8B949E" font-size="12.5">reliable full-stack systems</text>

        <text x="793" y="270" fill="#7EE787" font-size="14.5" font-weight="650">ship</text>
        <text x="793" y="290" fill="#8B949E" font-size="12.5">tested production delivery</text>
      </g>
    </g>
  </g>

  <rect x="1" y="1" width="1198" height="338" rx="16" fill="none" stroke="#30363D"/>
</svg>
